{
    "accessors" : [
        {
            "bufferView" : 0, 
            "componentType" : 5123, 
            "count" : 2904, 
            "max" : [
                506
            ], 
            "min" : [
                0
            ], 
            "type" : "SCALAR"
        }, 
        {
            "bufferView" : 1, 
            "componentType" : 5126, 
            "count" : 507, 
            "max" : [
                1.3671875, 
                0.984375, 
                0.8515625
            ], 
            "min" : [
                -1.3671875, 
                -0.984375, 
                -0.8515625
            ], 
            "type" : "VEC3"
        }, 
        {
            "bufferView" : 2, 
            "componentType" : 5126, 
            "count" : 507, 
            "max" : [
                0.9989318251609802, 
                0.999725341796875, 
                0.999969482421875
            ], 
            "min" : [
                -0.9989318251609802, 
                -0.9862666726112366, 
                -0.9753105044364929
            ], 
            "type" : "VEC3"
        }, 
        {
            "bufferView" : 3, 
            "componentType" : 5126, 
            "count" : 507, 
            "max" : [
                0.9987419843673706, 
                0.9946805834770203, 
                0.9965000152587891, 
                1.0
            ], 
            "min" : [
                -0.9963445663452148, 
                -0.999483048915863, 
                -0.9972872734069824, 
                1.0
            ], 
            "type" : "VEC4"
        }, 
        {
            "bufferView" : 4, 
            "componentType" : 5126, 
            "count" : 507, 
            "max" : [
                0.9998814463615417, 
                0.9998813555212109
            ], 
            "min" : [
                0.00011864447878906503, 
                0.06660729646682739
            ], 
            "type" : "VEC2"
        }
    ], 
    "asset" : {
        "generator" : "Khronos Blender glTF 2.0 exporter", 
        "version" : "2.0"
    }, 
    "bufferViews" : [
        {
            "buffer" : 0, 
            "byteLength" : 5808, 
            "byteOffset" : 0, 
            "target" : 34963
        }, 
        {
            "buffer" : 0, 
            "byteLength" : 6084, 
            "byteOffset" : 5808, 
            "target" : 34962
        }, 
        {
            "buffer" : 0, 
            "byteLength" : 6084, 
            "byteOffset" : 11892, 
            "target" : 34962
        }, 
        {
            "buffer" : 0, 
            "byteLength" : 8112, 
            "byteOffset" : 17976, 
            "target" : 34962
        }, 
        {
            "buffer" : 0, 
            "byteLength" : 4056, 
            "byteOffset" : 26088, 
            "target" : 34962
        }
    ], 
    "buffers" : [
        {
            "byteLength" : 30144, 
            "uri" : "monkey.bin"
        }
    ], 
    "meshes" : [
        {
            "name" : "Suzanne", 
            "primitives" : [
                {
                    "attributes" : {
                        "NORMAL" : 2, 
                        "POSITION" : 1, 
                        "TANGENT" : 3, 
                        "TEXCOORD_0" : 4
                    }, 
                    "indices" : 0
                }
            ]
        }
    ], 
    "nodes" : [
        {
            "mesh" : 0, 
            "name" : "Suzanne"
        }
    ], 
    "scene" : 0, 
    "scenes" : [
        {
            "name" : "Scene", 
            "nodes" : [
                0
            ]
        }
    ]
}
