{
    "accessors" : [
        {
            "bufferView" : 0, 
            "componentType" : 5123, 
            "count" : 3456, 
            "max" : [
                636
            ], 
            "min" : [
                0
            ], 
            "type" : "SCALAR"
        }, 
        {
            "bufferView" : 1, 
            "componentType" : 5126, 
            "count" : 637, 
            "max" : [
                1.25, 
                0.25, 
                1.25
            ], 
            "min" : [
                -1.25, 
                -0.25, 
                -1.25
            ], 
            "type" : "VEC3"
        }, 
        {
            "bufferView" : 2, 
            "componentType" : 5126, 
            "count" : 637, 
            "max" : [
                1.0, 
                0.99993896484375, 
                1.0
            ], 
            "min" : [
                -0.999969482421875, 
                -0.99993896484375, 
                -1.0
            ], 
            "type" : "VEC3"
        }, 
        {
            "bufferView" : 3, 
            "componentType" : 5126, 
            "count" : 637, 
            "max" : [
                0.9999985694885254, 
                0.2915928363800049, 
                0.9999212026596069, 
                1.0
            ], 
            "min" : [
                -0.9999988079071045, 
                -0.39832669496536255, 
                -1.0, 
                1.0
            ], 
            "type" : "VEC4"
        }, 
        {
            "bufferView" : 4, 
            "componentType" : 5126, 
            "count" : 637, 
            "max" : [
                0.9999497532844543, 
                0.9999497151766263
            ], 
            "min" : [
                5.028482337365858e-05, 
                0.7470680177211761
            ], 
            "type" : "VEC2"
        }
    ], 
    "asset" : {
        "generator" : "Khronos Blender glTF 2.0 exporter", 
        "version" : "2.0"
    }, 
    "bufferViews" : [
        {
            "buffer" : 0, 
            "byteLength" : 6912, 
            "byteOffset" : 0, 
            "target" : 34963
        }, 
        {
            "buffer" : 0, 
            "byteLength" : 7644, 
            "byteOffset" : 6912, 
            "target" : 34962
        }, 
        {
            "buffer" : 0, 
            "byteLength" : 7644, 
            "byteOffset" : 14556, 
            "target" : 34962
        }, 
        {
            "buffer" : 0, 
            "byteLength" : 10192, 
            "byteOffset" : 22200, 
            "target" : 34962
        }, 
        {
            "buffer" : 0, 
            "byteLength" : 5096, 
            "byteOffset" : 32392, 
            "target" : 34962
        }
    ], 
    "buffers" : [
        {
            "byteLength" : 37488, 
            "uri" : "torus.bin"
        }
    ], 
    "meshes" : [
        {
            "name" : "Torus", 
            "primitives" : [
                {
                    "attributes" : {
                        "NORMAL" : 2, 
                        "POSITION" : 1, 
                        "TANGENT" : 3, 
                        "TEXCOORD_0" : 4
                    }, 
                    "indices" : 0
                }
            ]
        }
    ], 
    "nodes" : [
        {
            "name" : "Camera", 
            "rotation" : [
                0.483536034822464, 
                0.33687159419059753, 
                -0.20870360732078552, 
                0.7804827094078064
            ], 
            "translation" : [
                7.481131553649902, 
                5.34366512298584, 
                6.5076398849487305
            ]
        }, 
        {
            "name" : "Lamp", 
            "rotation" : [
                0.16907575726509094, 
                0.7558802962303162, 
                -0.27217137813568115, 
                0.570947527885437
            ], 
            "scale" : [
                1.0, 
                1.0, 
                0.9999999403953552
            ], 
            "translation" : [
                4.076245307922363, 
                5.903861999511719, 
                -1.0054539442062378
            ]
        }, 
        {
            "mesh" : 0, 
            "name" : "Torus", 
            "scale" : [
                2.579058885574341, 
                2.579058885574341, 
                2.579058885574341
            ]
        }
    ], 
    "scene" : 0, 
    "scenes" : [
        {
            "name" : "Scene", 
            "nodes" : [
                2, 
                1, 
                0
            ]
        }
    ]
}
